<mxfile host="app.diagrams.net" agent="Mozilla/5.0 (Macintosh; Intel Mac OS X 10_15_7) AppleWebKit/537.36 (KHTML, like Gecko) Chrome/131.0.0.0 Safari/537.36" version="26.0.6">
  <diagram name="Trang-1" id="nce4DxO_A5__pDeRbW9e">
    <mxGraphModel dx="954" dy="639" grid="1" gridSize="10" guides="1" tooltips="1" connect="1" arrows="1" fold="1" page="1" pageScale="1" pageWidth="827" pageHeight="1169" math="0" shadow="0">
      <root>
        <mxCell id="0" />
        <mxCell id="1" parent="0" />
        <mxCell id="VAHyn8yl-rxrOIaUWyb0-12" style="edgeStyle=orthogonalEdgeStyle;rounded=0;orthogonalLoop=1;jettySize=auto;html=1;exitX=0.5;exitY=1;exitDx=0;exitDy=0;entryX=0.5;entryY=0;entryDx=0;entryDy=0;strokeWidth=2;" parent="1" source="VAHyn8yl-rxrOIaUWyb0-1" target="VAHyn8yl-rxrOIaUWyb0-3" edge="1">
          <mxGeometry relative="1" as="geometry" />
        </mxCell>
        <mxCell id="VAHyn8yl-rxrOIaUWyb0-1" value="" style="rounded=0;whiteSpace=wrap;html=1;strokeWidth=2;" parent="1" vertex="1">
          <mxGeometry x="320" y="40" width="120" height="60" as="geometry" />
        </mxCell>
        <mxCell id="VAHyn8yl-rxrOIaUWyb0-2" value="&lt;b&gt;Lập bản đồ biến động rừng&lt;/b&gt;" style="rounded=0;whiteSpace=wrap;html=1;strokeWidth=2;" parent="1" vertex="1">
          <mxGeometry x="320" y="540" width="120" height="60" as="geometry" />
        </mxCell>
        <mxCell id="VAHyn8yl-rxrOIaUWyb0-13" style="edgeStyle=orthogonalEdgeStyle;rounded=0;orthogonalLoop=1;jettySize=auto;html=1;exitX=0.5;exitY=1;exitDx=0;exitDy=0;entryX=0.5;entryY=0;entryDx=0;entryDy=0;strokeWidth=2;" parent="1" source="VAHyn8yl-rxrOIaUWyb0-3" target="VAHyn8yl-rxrOIaUWyb0-4" edge="1">
          <mxGeometry relative="1" as="geometry" />
        </mxCell>
        <mxCell id="VAHyn8yl-rxrOIaUWyb0-3" value="" style="rounded=1;whiteSpace=wrap;html=1;strokeWidth=2;" parent="1" vertex="1">
          <mxGeometry x="320" y="140" width="120" height="60" as="geometry" />
        </mxCell>
        <mxCell id="VAHyn8yl-rxrOIaUWyb0-15" style="edgeStyle=orthogonalEdgeStyle;rounded=0;orthogonalLoop=1;jettySize=auto;html=1;exitX=0.5;exitY=1;exitDx=0;exitDy=0;entryX=0.5;entryY=0;entryDx=0;entryDy=0;strokeWidth=2;" parent="1" source="VAHyn8yl-rxrOIaUWyb0-4" target="VAHyn8yl-rxrOIaUWyb0-5" edge="1">
          <mxGeometry relative="1" as="geometry" />
        </mxCell>
        <mxCell id="VAHyn8yl-rxrOIaUWyb0-4" value="" style="rounded=1;whiteSpace=wrap;html=1;strokeWidth=2;" parent="1" vertex="1">
          <mxGeometry x="320" y="240" width="120" height="60" as="geometry" />
        </mxCell>
        <mxCell id="jkRkCaElEVyptCw_jzRn-11" style="edgeStyle=orthogonalEdgeStyle;rounded=0;orthogonalLoop=1;jettySize=auto;html=1;exitX=0.5;exitY=1;exitDx=0;exitDy=0;entryX=0.5;entryY=0;entryDx=0;entryDy=0;strokeWidth=2;" edge="1" parent="1" source="VAHyn8yl-rxrOIaUWyb0-5" target="jkRkCaElEVyptCw_jzRn-7">
          <mxGeometry relative="1" as="geometry" />
        </mxCell>
        <mxCell id="VAHyn8yl-rxrOIaUWyb0-5" value="&lt;b&gt;&amp;nbsp;Đánh giá độ chính xác&lt;/b&gt;" style="rounded=1;whiteSpace=wrap;html=1;strokeWidth=2;" parent="1" vertex="1">
          <mxGeometry x="320" y="340" width="120" height="60" as="geometry" />
        </mxCell>
        <mxCell id="VAHyn8yl-rxrOIaUWyb0-6" value="&lt;b&gt;&amp;nbsp;Thu thập dữ liệu&lt;/b&gt;" style="text;html=1;align=center;verticalAlign=middle;whiteSpace=wrap;rounded=0;" parent="1" vertex="1">
          <mxGeometry x="350" y="55" width="60" height="30" as="geometry" />
        </mxCell>
        <mxCell id="VAHyn8yl-rxrOIaUWyb0-8" value="&lt;b&gt;Xử lý dữ liệu&lt;/b&gt;" style="text;html=1;align=center;verticalAlign=middle;whiteSpace=wrap;rounded=0;" parent="1" vertex="1">
          <mxGeometry x="350" y="155" width="60" height="30" as="geometry" />
        </mxCell>
        <mxCell id="VAHyn8yl-rxrOIaUWyb0-9" value="&lt;b&gt;Giải đoán ảnh&lt;/b&gt;" style="text;html=1;align=center;verticalAlign=middle;whiteSpace=wrap;rounded=0;" parent="1" vertex="1">
          <mxGeometry x="354" y="255" width="60" height="30" as="geometry" />
        </mxCell>
        <mxCell id="VAHyn8yl-rxrOIaUWyb0-19" style="edgeStyle=orthogonalEdgeStyle;rounded=0;orthogonalLoop=1;jettySize=auto;html=1;exitX=1;exitY=0.5;exitDx=0;exitDy=0;entryX=0;entryY=0.5;entryDx=0;entryDy=0;dashed=1;strokeWidth=2;" parent="1" source="VAHyn8yl-rxrOIaUWyb0-18" target="VAHyn8yl-rxrOIaUWyb0-1" edge="1">
          <mxGeometry relative="1" as="geometry" />
        </mxCell>
        <mxCell id="VAHyn8yl-rxrOIaUWyb0-18" value="&lt;b&gt;Ảnh landsat, bản đồ&lt;/b&gt;" style="rounded=1;whiteSpace=wrap;html=1;strokeWidth=2;" parent="1" vertex="1">
          <mxGeometry x="120" y="40" width="120" height="60" as="geometry" />
        </mxCell>
        <mxCell id="VAHyn8yl-rxrOIaUWyb0-23" style="edgeStyle=orthogonalEdgeStyle;rounded=0;orthogonalLoop=1;jettySize=auto;html=1;exitX=1;exitY=0.5;exitDx=0;exitDy=0;entryX=0;entryY=0.5;entryDx=0;entryDy=0;dashed=1;strokeWidth=2;" parent="1" source="VAHyn8yl-rxrOIaUWyb0-20" target="VAHyn8yl-rxrOIaUWyb0-3" edge="1">
          <mxGeometry relative="1" as="geometry" />
        </mxCell>
        <mxCell id="VAHyn8yl-rxrOIaUWyb0-20" value="&lt;b&gt;&amp;nbsp;Tiền xử lý ảnh, tạo ảnh chỉ số&lt;/b&gt;" style="rounded=1;whiteSpace=wrap;html=1;strokeWidth=2;" parent="1" vertex="1">
          <mxGeometry x="120" y="140" width="120" height="60" as="geometry" />
        </mxCell>
        <mxCell id="VAHyn8yl-rxrOIaUWyb0-22" style="edgeStyle=orthogonalEdgeStyle;rounded=0;orthogonalLoop=1;jettySize=auto;html=1;exitX=0;exitY=0.5;exitDx=0;exitDy=0;entryX=1;entryY=0.5;entryDx=0;entryDy=0;dashed=1;strokeWidth=2;" parent="1" source="VAHyn8yl-rxrOIaUWyb0-21" target="VAHyn8yl-rxrOIaUWyb0-1" edge="1">
          <mxGeometry relative="1" as="geometry" />
        </mxCell>
        <mxCell id="VAHyn8yl-rxrOIaUWyb0-21" value="&lt;b&gt;Dữ liệu thực địa&lt;/b&gt;" style="rounded=1;whiteSpace=wrap;html=1;strokeWidth=2;" parent="1" vertex="1">
          <mxGeometry x="520" y="40" width="120" height="60" as="geometry" />
        </mxCell>
        <mxCell id="VAHyn8yl-rxrOIaUWyb0-26" style="edgeStyle=orthogonalEdgeStyle;rounded=0;orthogonalLoop=1;jettySize=auto;html=1;exitX=0;exitY=0.5;exitDx=0;exitDy=0;entryX=1;entryY=0.5;entryDx=0;entryDy=0;dashed=1;strokeWidth=2;" parent="1" source="VAHyn8yl-rxrOIaUWyb0-25" target="VAHyn8yl-rxrOIaUWyb0-3" edge="1">
          <mxGeometry relative="1" as="geometry" />
        </mxCell>
        <mxCell id="VAHyn8yl-rxrOIaUWyb0-25" value="&lt;b&gt;Tạo mẫu huấn luyện/ đánh giá&lt;/b&gt;" style="rounded=1;whiteSpace=wrap;html=1;strokeWidth=2;" parent="1" vertex="1">
          <mxGeometry x="520" y="140" width="120" height="60" as="geometry" />
        </mxCell>
        <mxCell id="jkRkCaElEVyptCw_jzRn-9" style="edgeStyle=orthogonalEdgeStyle;rounded=0;orthogonalLoop=1;jettySize=auto;html=1;exitX=0.5;exitY=1;exitDx=0;exitDy=0;entryX=0.5;entryY=0;entryDx=0;entryDy=0;strokeWidth=2;" edge="1" parent="1" source="jkRkCaElEVyptCw_jzRn-7" target="VAHyn8yl-rxrOIaUWyb0-2">
          <mxGeometry relative="1" as="geometry" />
        </mxCell>
        <mxCell id="jkRkCaElEVyptCw_jzRn-7" value="&lt;b&gt;Chồng lớp bản đồ&lt;/b&gt;" style="rounded=1;whiteSpace=wrap;html=1;strokeWidth=2;" vertex="1" parent="1">
          <mxGeometry x="320" y="440" width="120" height="60" as="geometry" />
        </mxCell>
      </root>
    </mxGraphModel>
  </diagram>
</mxfile>
